<?xml version="1.0" encoding="utf-8"?>
<!-- Generator: Adobe Illustrator 17.0.0, SVG Export Plug-In . SVG Version: 6.00 Build 0)  -->
<!DOCTYPE svg PUBLIC "-//W3C//DTD SVG 1.1//EN" "http://www.w3.org/Graphics/SVG/1.1/DTD/svg11.dtd">
<svg version="1.1" id="Слой_1" xmlns="http://www.w3.org/2000/svg" xmlns:xlink="http://www.w3.org/1999/xlink" x="0px" y="0px"
	 width="50px" height="50px" viewBox="25 25 50 50" enable-background="new 25 25 50 50" xml:space="preserve">
<g>
	<path d="M39.502,43.984h20.995c0.554,0,1.003-0.449,1.003-1.003c0-0.554-0.449-1.003-1.003-1.003H39.502
		c-0.554,0-1.003,0.449-1.003,1.003S38.949,43.984,39.502,43.984z"/>
	<path d="M60.497,48.997H39.502c-0.554,0-1.003,0.449-1.003,1.003s0.449,1.003,1.003,1.003h20.995c0.554,0,1.003-0.449,1.003-1.003
		S61.05,48.997,60.497,48.997z"/>
	<path d="M60.497,56.016H39.502c-0.554,0-1.003,0.449-1.003,1.003c0,0.554,0.449,1.003,1.003,1.003h20.995
		c0.554,0,1.003-0.449,1.003-1.003S61.05,56.016,60.497,56.016z"/>
</g>
</svg>
