<?xml version="1.0" encoding="utf-8"?>
<!-- Generator: Adobe Illustrator 17.0.0, SVG Export Plug-In . SVG Version: 6.00 Build 0)  -->
<!DOCTYPE svg PUBLIC "-//W3C//DTD SVG 1.1//EN" "http://www.w3.org/Graphics/SVG/1.1/DTD/svg11.dtd">
<svg version="1.1" id="Layer_1" xmlns="http://www.w3.org/2000/svg" xmlns:xlink="http://www.w3.org/1999/xlink" x="0px" y="0px"
	 width="38px" height="38px" viewBox="6 6 38 38" enable-background="new 6 6 38 38" xml:space="preserve">
<title>icons</title>
<path d="M25,6.928c-9.941,0-18,8.059-18,18c0,6.529,3.488,12.229,8.691,15.385c0.054,0.033,0.107,0.066,0.161,0.098
	c0.336,0.199,0.677,0.389,1.027,0.566c0.128,0.065,0.259,0.125,0.388,0.187c0.316,0.151,0.63,0.301,0.956,0.434
	c0.286,0.117,0.578,0.216,0.869,0.318c0.344,0.12,0.692,0.23,1.045,0.329c0.328,0.092,0.656,0.18,0.988,0.254
	c0.197,0.043,0.396,0.08,0.596,0.117c0.371,0.069,0.743,0.125,1.118,0.171c0.166,0.02,0.33,0.042,0.497,0.058
	c0.552,0.051,1.106,0.085,1.663,0.084c9.941,0,18-8.059,18-18C43,14.987,34.941,6.928,25,6.928z M20.447,31.048
	c-0.574-0.824-0.938-1.777-1.059-2.774c-0.065-0.544-0.429-1.006-0.942-1.196c-0.339-0.169-0.678-0.339-0.805-1.927
	c-0.049-0.391,0.088-0.783,0.371-1.059c0.224-0.106,0.35-0.349,0.307-0.593c0,0-0.169-0.889-0.318-1.948
	c-0.466-2.795-0.508-5.834,3.06-7.264c3.568-1.429,6.141-0.371,6.385,0.148c0.118,0.141,0.277,0.24,0.455,0.286h0.148
	c1.076-0.028,2.114,0.398,2.859,1.175c1.451,1.694,1.006,6.205,0.741,7.645c-0.035,0.235,0.079,0.466,0.286,0.582
	c0.301,0.264,0.448,0.662,0.392,1.059c-0.116,1.631-0.466,1.8-0.805,1.959c-0.509,0.197-0.871,0.655-0.942,1.196
	c-0.121,1.001-0.484,1.957-1.059,2.785c-0.436,0.549-0.658,1.237-0.625,1.938c0,3.154,1.185,4.71,4.961,6.266
	c-0.052,0.032-0.105,0.064-0.158,0.096c-0.286,0.174-0.573,0.345-0.866,0.5c-0.376,0.198-0.758,0.384-1.15,0.554
	c-0.126,0.055-0.255,0.101-0.381,0.153c-0.383,0.154-0.77,0.3-1.166,0.427c-0.067,0.022-0.134,0.044-0.201,0.065
	c-1.561,0.477-3.218,0.738-4.935,0.738c-3.291,0-6.352-0.957-8.947-2.587v-0.028h0.042c3.78-1.546,4.966-3.092,4.966-6.268
	C21.094,32.28,20.876,31.596,20.447,31.048z M35.056,38.511c-4.302-1.633-5.016-2.987-5.016-5.535
	c-0.03-0.48,0.126-0.954,0.434-1.323c0.661-0.944,1.082-2.034,1.228-3.177c0.006-0.202,0.151-0.374,0.349-0.413
	c0.656-0.318,1.26-0.784,1.419-2.901c0.044-0.668-0.185-1.326-0.635-1.821c0.18-1.302,0.762-6.109-1.059-8.227
	c-0.91-0.984-2.185-1.551-3.526-1.567c-0.932-0.974-3.886-1.8-7.592-0.296c-4.256,1.747-4.235,5.453-3.738,8.471
	c0.095,0.667,0.191,1.302,0.265,1.684c-0.457,0.504-0.687,1.174-0.635,1.853c0.159,2.086,0.762,2.541,1.419,2.859
	c0.198,0.039,0.343,0.211,0.349,0.413c0.145,1.143,0.567,2.233,1.228,3.176c0.308,0.37,0.464,0.843,0.434,1.324
	c0,2.552-0.711,3.896-4.983,5.523c-4.157-3.072-6.865-7.993-6.865-13.559c0-9.315,7.552-16.867,16.867-16.867
	c9.309,0.006,16.855,7.548,16.867,16.857c0,0.004,0,0.007,0,0.011C41.867,30.534,39.182,35.436,35.056,38.511z"/>
</svg>
